<?xml version="1.0" encoding="UTF-8" standalone="no"?>
<svg
   xmlns:dc="http://purl.org/dc/elements/1.1/"
   xmlns:cc="http://creativecommons.org/ns#"
   xmlns:rdf="http://www.w3.org/1999/02/22-rdf-syntax-ns#"
   xmlns:svg="http://www.w3.org/2000/svg"
   xmlns="http://www.w3.org/2000/svg"
   xmlns:sodipodi="http://sodipodi.sourceforge.net/DTD/sodipodi-0.dtd"
   xmlns:inkscape="http://www.inkscape.org/namespaces/inkscape"
   fill="none"
   viewBox="0 0 25 24"
   height="24"
   width="25"
   class="tanuki-logo"
   role="img"
   aria-hidden="true"
   version="1.1"
   id="svg4493"
   sodipodi:docname="logo.svg"
   inkscape:version="0.92.1 r15371"
   inkscape:export-filename="E:\Projects\gitlab_pipelines\logo.png"
   inkscape:export-xdpi="983.03998"
   inkscape:export-ydpi="983.03998">
  <metadata
     id="metadata4499">
    <rdf:RDF>
      <cc:Work
         rdf:about="">
        <dc:format>image/svg+xml</dc:format>
        <dc:type
           rdf:resource="http://purl.org/dc/dcmitype/StillImage" />
        <dc:title></dc:title>
      </cc:Work>
    </rdf:RDF>
  </metadata>
  <defs
     id="defs4497" />
  <sodipodi:namedview
     pagecolor="#ffffff"
     bordercolor="#666666"
     borderopacity="1"
     objecttolerance="10"
     gridtolerance="10"
     guidetolerance="10"
     inkscape:pageopacity="0"
     inkscape:pageshadow="2"
     inkscape:window-width="1653"
     inkscape:window-height="961"
     id="namedview4495"
     showgrid="false"
     inkscape:zoom="25.375"
     inkscape:cx="4.5086107"
     inkscape:cy="11.351604"
     inkscape:window-x="196"
     inkscape:window-y="114"
     inkscape:window-maximized="0"
     inkscape:current-layer="XMLID_1_" />
  <path
     d="m24.507 9.5-.034-.09L21.082.562a.896.896 0 0 0-1.694.091l-2.29 7.01H7.825L5.535.653a.898.898 0 0 0-1.694-.09L.451 9.411.416 9.5a6.297 6.297 0 0 0 2.09 7.278l.012.01.03.022 5.16 3.867 2.56 1.935 1.554 1.176a1.051 1.051 0 0 0 1.268 0l1.555-1.176 2.56-1.935 5.197-3.89.014-.01A6.297 6.297 0 0 0 24.507 9.5Z"
     class="tanuki-shape tanuki"
     id="path4485"
     fill="#E24329" />
  <path
     d="m24.507 9.5-.034-.09a11.44 11.44 0 0 0-4.56 2.051l-7.447 5.632 4.742 3.584 5.197-3.89.014-.01A6.297 6.297 0 0 0 24.507 9.5Z"
     class="tanuki-shape right-cheek"
     id="path4487"
     fill="#FC6D26" />
  <path
     fill="#FCA326"
     d="m7.707 20.677 2.56 1.935 1.555 1.176a1.051 1.051 0 0 0 1.268 0l1.555-1.176 2.56-1.935-4.743-3.584-4.755 3.584Z"
     class="tanuki-shape chin"
     id="path4489" />
  <path
     fill="#FC6D26"
     d="M5.01 11.461a11.43 11.43 0 0 0-4.56-2.05L.416 9.5a6.297 6.297 0 0 0 2.09 7.278l.012.01.03.022 5.16 3.867 4.745-3.584-7.444-5.632Z"
     class="tanuki-shape left-cheek"
     id="path4491" />
  <g
     transform="matrix(2.7720928,0,0,2.7720928,-534.35267,-677.88739)"
     id="layer1"
     inkscape:label="Layer 1"
     style="stroke-width:1.36342037">
    <g
       id="g4525"
       style="stroke-width:1.36342037">
      <g
         id="XMLID_1_"
         transform="matrix(0.0074126,0,0,0.0074126,192.78335,249.38915)"
         style="stroke-width:66.35153961">
        <linearGradient
           gradientTransform="matrix(85.58,0,0,-127.4498,29214.246,73020.789)"
           y2="572.06818"
           x2="-337.46591"
           y1="572.06818"
           x1="-339.46591"
           gradientUnits="userSpaceOnUse"
           id="SVGID_1_">
          <stop
             id="stop4592"
             style="stop-color:#ED358C"
             offset="0" />
          <stop
             id="stop4594"
             style="stop-color:#E9388C"
             offset="0.16" />
          <stop
             id="stop4596"
             style="stop-color:#DE418C"
             offset="0.3" />
          <stop
             id="stop4598"
             style="stop-color:#CC508C"
             offset="0.43" />
          <stop
             id="stop4600"
             style="stop-color:#B2658D"
             offset="0.57" />
          <stop
             id="stop4602"
             style="stop-color:#90808D"
             offset="0.7" />
          <stop
             id="stop4604"
             style="stop-color:#67A18E"
             offset="0.83" />
          <stop
             id="stop4606"
             style="stop-color:#37C78F"
             offset="0.95" />
          <stop
             id="stop4608"
             style="stop-color:#22D88F"
             offset="1" />
        </linearGradient>
        <polygon
           id="polygon4611"
           points="311.27,64.81 196.8,207.18 162.44,221.63 193.58,0 "
           class="st0"
           style="fill:url(#SVGID_1_);stroke-width:66.35153961" />
        <linearGradient
           gradientTransform="matrix(-37.64,252.64,131.1578,72.5033,-88088.82,45280.301)"
           y2="573.98462"
           x2="-341.69241"
           y1="573.98462"
           x1="-343.69241"
           gradientUnits="userSpaceOnUse"
           id="SVGID_2_">
          <stop
             id="stop4613"
             style="stop-color:#22D88F"
             offset="0" />
          <stop
             id="stop4615"
             style="stop-color:#22D88F"
             offset="0.09" />
          <stop
             id="stop4617"
             style="stop-color:#029DE0"
             offset="0.9" />
          <stop
             id="stop4619"
             style="stop-color:#029DE0"
             offset="1" />
        </linearGradient>
        <polygon
           id="polygon4622"
           points="0,375.93 178.43,307.2 195.26,0 47.13,92.86 "
           class="st1"
           style="fill:url(#SVGID_2_);stroke-width:66.35153961" />
        <linearGradient
           gradientTransform="matrix(-29377.141,-32531.201,-34108.801,28018.389,9363080,-27262830)"
           y2="571.995"
           x2="-338.5993"
           y1="571.995"
           x1="-340.5993"
           gradientUnits="userSpaceOnUse"
           id="SVGID_3_">
          <stop
             id="stop4624"
             style="stop-color:#22D88F"
             offset="0" />
          <stop
             id="stop4626"
             style="stop-color:#22D88F"
             offset="0.09" />
          <stop
             id="stop4628"
             style="stop-color:#029DE0"
             offset="0.9" />
          <stop
             id="stop4630"
             style="stop-color:#029DE0"
             offset="1" />
        </linearGradient>
        <polygon
           id="polygon4633"
           points="311.27,64.81 219.95,165.66 0,375.93 166.36,497.55 374.39,308.74 501.62,153.6 435.97,19.22 "
           class="st2"
           style="fill:url(#SVGID_3_);stroke-width:66.35153961" />
        <linearGradient
           gradientTransform="matrix(6478.3105,-1021.7312,-1133.0916,-5841.6216,2899933.7,2986500)"
           y2="571.97028"
           x2="-336.34549"
           y1="571.97028"
           x1="-338.34561"
           gradientUnits="userSpaceOnUse"
           id="SVGID_4_">
          <stop
             id="stop4635"
             style="stop-color:#22D88F"
             offset="0" />
          <stop
             id="stop4637"
             style="stop-color:#22D88F"
             offset="0.09" />
          <stop
             id="stop4639"
             style="stop-color:#029DE0"
             offset="0.9" />
          <stop
             id="stop4641"
             style="stop-color:#029DE0"
             offset="1" />
        </linearGradient>
        <polygon
           id="polygon4644"
           points="431.2,512 512,329.64 215.18,218.41 186.42,393.61 303.13,483.95 "
           class="st3"
           style="fill:url(#SVGID_4_);stroke-width:66.35153961" />
        <rect
           height="319.95999"
           width="319.95999"
           y="95.949997"
           x="95.949997"
           id="XMLID_2_"
           style="stroke-width:66.35153961" />
        <g
           id="g4700"
           transform="translate(-403.43475,267.09843)">
          <rect
             y="248.1205"
             x="196.36383"
             height="2.4930034"
             width="2.4930034"
             id="rect4695"
             style="opacity:1;fill:#000000;fill-opacity:1;stroke:none;stroke-width:0.36073828;stroke-linecap:round;stroke-linejoin:round;stroke-miterlimit:4;stroke-dasharray:none;stroke-opacity:1;paint-order:stroke markers fill"
             transform="matrix(134.90543,0,0,134.90543,-26007.521,-33643.951)" />
          <path
             style="fill:#ffffff;stroke-width:66.35153961"
             inkscape:connector-curvature="0"
             id="XMLID_3_"
             class="st4"
             d="m 531.2469,82.725774 h 119.93 v 20.059996 h -119.93 z m -2.39,-151.22001 c -0.42,-18.38 6.73,-36.049994 19.64,-49.099994 13.05,-13.05 30.72,-20.06 49.1,-19.64 24.83,0 39.98,8 52.04,20.76 l -18.38,21.600004 c -10.38,-9.540004 -20.76,-15.150004 -33.67,-15.150004 -22.44,0 -38.44,18.380004 -38.44,41.659994 0,22.44 15.99,41.66 38.44,41.66 15.15,0 24.83,-6.45 35.21,-15.15 l 18.38,18.38 c -13.61,14.4499996 -28.76,23.98999956 -54.43,23.98999956 -18.24,0 -35.63,-7.28999996 -48.39,-20.19999956 -12.62,-13.18 -19.78,-30.57 -19.5,-48.81 z m 142.38,-67.189994 h 29.6 v 108.009994 h 57.65 v 24.8299996 h -87.25 z" />
        </g>
      </g>
    </g>
  </g>
  <style
     id="style4590"
     type="text/css">
	.st0{fill:url(#SVGID_1_);}
	.st1{fill:url(#SVGID_2_);}
	.st2{fill:url(#SVGID_3_);}
	.st3{fill:url(#SVGID_4_);}
	.st4{fill:#FFFFFF;}
</style>
</svg>
